<svg width="75" height="75" viewBox="0 0 75 75" fill="none" xmlns="http://www.w3.org/2000/svg">
<path fill-rule="evenodd" clip-rule="evenodd" d="M14.509 9.68577H33.8537V7.27352H14.509V6.06787C14.509 4.07302 16.1362 2.44997 18.136 2.44997H43.5261C44.8604 2.44997 45.9444 3.53125 45.9444 4.86222H48.3627C48.3627 2.20104 46.194 0.0377197 43.5261 0.0377197H18.136C14.8026 0.0377197 12.0907 2.74281 12.0907 6.06787V12.098H14.509V9.68577Z" fill="white"/>
<path fill-rule="evenodd" clip-rule="evenodd" d="M14.509 57.927V54.3091H19.3447V51.8969H12.0907V57.927C12.0907 61.2521 14.8026 63.9572 18.136 63.9572H21.7631V61.5449H18.136C16.1362 61.5449 14.509 59.9219 14.509 57.927Z" fill="white"/>
<path fill-rule="evenodd" clip-rule="evenodd" d="M22.3143 31.1345C23.5009 30.1171 24.1814 28.6412 24.1814 27.083C24.1814 24.1399 21.7816 21.7461 18.8313 21.7461H18.6416C17.2113 21.7461 15.869 22.3012 14.858 23.3096L14.509 23.6593L14.1584 23.3096C13.149 22.3012 11.8051 21.7461 10.3765 21.7461H10.1868C7.23648 21.7461 4.83667 24.1399 4.83667 27.083C4.83667 28.6412 5.51696 30.1186 6.7043 31.135L14.509 37.8072L22.3143 31.1345ZM7.25405 27.083C7.25405 25.4708 8.56986 24.1583 10.1868 24.1583H10.3765C11.1593 24.1583 11.8959 24.4623 12.4487 25.0144L14.509 27.0696L16.5694 25.0144C17.1214 24.4623 17.8578 24.1583 18.6416 24.1583H18.8313C20.448 24.1583 21.7631 25.4708 21.7631 27.083C21.7631 27.9368 21.3898 28.7473 20.7387 29.303L14.509 34.6301L8.27836 29.3045C7.62829 28.7473 7.25405 27.9368 7.25405 27.083Z" fill="white"/>
<path fill-rule="evenodd" clip-rule="evenodd" d="M29.018 28.9828C29.018 21.0019 22.5091 14.5103 14.509 14.5103C6.50875 14.5103 0 21.0019 0 28.9828C0 36.9628 6.50875 43.4544 14.509 43.4544C22.5091 43.4544 29.018 36.9628 29.018 28.9828ZM2.41832 28.9828C2.41832 22.3321 7.84232 16.9225 14.509 16.9225C21.1757 16.9225 26.5997 22.3321 26.5997 28.9828C26.5997 35.6327 21.1757 41.0431 14.509 41.0431C7.84232 41.0431 2.41832 35.6327 2.41832 28.9828Z" fill="white"/>
<path fill-rule="evenodd" clip-rule="evenodd" d="M36.2721 7.27344V21.746H38.6904V9.68569H72.5441V39.8364H66.4988V42.2487H74.9625V7.27344H36.2721Z" fill="white"/>
<path fill-rule="evenodd" clip-rule="evenodd" d="M65.29 21.7461C65.29 16.4264 60.95 12.098 55.6167 12.098C50.2836 12.098 45.9443 16.4264 45.9443 21.7461C45.9443 24.678 47.2889 27.4457 49.5714 29.2721V30.1885H47.154V32.6007H59.2447V35.013H58.035V37.4243H61.662V32.6007H64.0804V30.1885H61.662V29.2721C63.9453 27.4457 65.29 24.678 65.29 21.7461ZM55.6167 22.9527C54.9511 22.9527 54.408 22.4122 54.408 21.7461C54.408 21.0807 54.9511 20.5404 55.6167 20.5404C56.2832 20.5404 56.8263 21.0807 56.8263 21.7461C56.8263 22.4122 56.2832 22.9527 55.6167 22.9527ZM59.7604 27.6799L59.2446 28.0406V30.1885H56.8263V25.1426C58.2298 24.6434 59.2446 23.3162 59.2446 21.7461C59.2446 19.7512 57.6166 18.1282 55.6167 18.1282C53.6168 18.1282 51.9897 19.7512 51.9897 21.7461C51.9897 23.3162 53.0043 24.6434 54.408 25.1426V30.1885H51.9897V28.0406L51.4739 27.6799C49.5256 26.3231 48.3627 24.1054 48.3627 21.7461C48.3627 17.7556 51.6164 14.5103 55.6167 14.5103C59.618 14.5103 62.8717 17.7556 62.8717 21.7461C62.8717 24.1054 61.7087 26.3231 59.7604 27.6799Z" fill="white"/>
<path fill-rule="evenodd" clip-rule="evenodd" d="M59.2447 39.8365C57.7938 39.8365 56.5046 40.4902 55.6167 41.5031C54.7298 40.4902 53.4406 39.8365 51.9897 39.8365C50.539 39.8365 49.2504 40.4902 48.3627 41.5031C47.475 40.4902 46.1864 39.8365 44.7357 39.8365C43.85 39.8365 43.0317 40.0928 42.3174 40.5072V28.9828C42.3174 26.3216 40.1486 24.1583 37.4807 24.1583C34.8138 24.1583 32.645 26.3216 32.645 28.9828V53.5966C32.645 53.7797 32.5719 53.9535 32.4406 54.0809C32.3085 54.2105 32.1041 54.2576 31.9521 54.2767C31.6487 54.2716 31.3889 54.0728 31.3063 53.782L29.651 47.9352C29.1049 46.0065 27.3198 44.661 25.3118 44.661H25.064C22.5771 44.661 20.5543 46.6787 20.5543 49.1578C20.5543 49.4559 20.583 49.7541 20.6422 50.0397L22.2007 57.8137C22.7667 60.6411 24.3098 63.2188 26.5436 65.0776L30.2267 68.1411V74.8118H59.2447V73.3985C59.2447 71.5206 59.9767 69.7547 61.3078 68.4283C63.0967 66.6454 64.0804 64.276 64.0804 61.7525V44.661C64.0804 42 61.9116 39.8365 59.2447 39.8365ZM61.6621 61.7525C61.6621 63.6304 60.93 65.3963 59.5989 66.7227C58.0485 68.2677 57.1031 70.2552 56.8779 72.3995H32.645V67.0097L28.0917 63.2254C26.28 61.7186 25.03 59.6303 24.5709 57.3411L23.011 49.5649C22.9859 49.4309 22.9726 49.2956 22.9726 49.1578C22.9726 48.0074 23.9104 47.0733 25.0624 47.0733H25.3105C26.2424 47.0733 27.0697 47.6974 27.3236 48.591L28.9789 54.4393C29.3552 55.7622 30.5329 56.6669 31.9107 56.6897C32.7659 56.7021 33.5393 56.3893 34.1356 55.8034C34.734 55.2161 35.0633 54.4335 35.0633 53.5966V28.9828C35.0633 27.6519 36.1473 26.5706 37.4807 26.5706C38.815 26.5706 39.899 27.6519 39.899 28.9828V49.4846H42.3174V44.661C42.3174 43.3308 43.4021 42.2488 44.7357 42.2488C46.0691 42.2488 47.154 43.3308 47.154 44.661V49.4846H49.5714V44.661C49.5714 43.3308 50.6563 42.2488 51.9897 42.2488C53.3233 42.2488 54.408 43.3308 54.408 44.661V49.4846H56.8264V44.661C56.8264 43.3308 57.9104 42.2488 59.2447 42.2488C60.5781 42.2488 61.6621 43.3308 61.6621 44.661V61.7525Z" fill="white"/>
<path fill-rule="evenodd" clip-rule="evenodd" d="M12.0907 49.4846H14.509V45.8667H12.0907V49.4846Z" fill="white"/>
</svg>
